<?xml version="1.0" encoding="UTF-8" standalone="no"?>
<!DOCTYPE svg PUBLIC "-//W3C//DTD SVG 1.0//EN" "http://www.w3.org/TR/2001/REC-SVG-20010904/DTD/svg10.dtd">
<svg width="46.22cm" height="34.75cm" xmlns="http://www.w3.org/2000/svg">
<rect width="46.22cm" height="34.75cm" style="fill: none;"/>
<rect x="34.42cm" y="2.80cm" width="9.23cm" height="1.59cm" style="fill:#808080; stroke:#808080; stroke-width:1;"/>
<rect x="34.23cm" y="2.61cm" width="9.23cm" height="1.59cm" style="fill:#ffffff; stroke:#000000; stroke-width:0.500000;"/>
<rect x="23.87cm" y="4.79cm" width="9.23cm" height="1.59cm" style="fill:#808080; stroke:#808080; stroke-width:1;"/>
<rect x="23.68cm" y="4.59cm" width="9.23cm" height="1.59cm" style="fill:#ffffff; stroke:#000000; stroke-width:0.500000;"/>
<line x1="32.91cm" y1="5.39cm" x2="33.90cm" y2="5.39cm" style="stroke:#000000; stroke-width:0.50pt;"/>
<line x1="33.90cm" y1="3.40cm" x2="33.90cm" y2="7.37cm" style="stroke:#000000; stroke-width:0.50pt;"/>
<line x1="33.90cm" y1="3.40cm" x2="34.23cm" y2="3.40cm" style="stroke:#000000; stroke-width:0.50pt;"/>
<line x1="33.90cm" y1="7.37cm" x2="34.23cm" y2="7.37cm" style="stroke:#000000; stroke-width:0.50pt;"/>
<rect x="34.23cm" y="4.59cm" width="9.23cm" height="0.63cm" style="fill:#ffffff; stroke:#000000; stroke-width:0.500000;"/>
<rect x="34.42cm" y="6.77cm" width="9.23cm" height="1.59cm" style="fill:#808080; stroke:#808080; stroke-width:1;"/>
<rect x="34.23cm" y="6.58cm" width="9.23cm" height="1.59cm" style="fill:#ffffff; stroke:#000000; stroke-width:0.500000;"/>
<rect x="13.32cm" y="8.75cm" width="9.23cm" height="1.59cm" style="fill:#808080; stroke:#808080; stroke-width:1;"/>
<rect x="13.13cm" y="8.56cm" width="9.23cm" height="1.59cm" style="fill:#ffffff; stroke:#000000; stroke-width:0.500000;"/>
<line x1="22.35cm" y1="9.36cm" x2="23.35cm" y2="9.36cm" style="stroke:#000000; stroke-width:0.50pt;"/>
<line x1="23.35cm" y1="5.39cm" x2="23.35cm" y2="13.33cm" style="stroke:#000000; stroke-width:0.50pt;"/>
<line x1="23.35cm" y1="5.39cm" x2="23.68cm" y2="5.39cm" style="stroke:#000000; stroke-width:0.50pt;"/>
<line x1="23.35cm" y1="13.33cm" x2="23.68cm" y2="13.33cm" style="stroke:#000000; stroke-width:0.50pt;"/>
<rect x="23.68cm" y="8.56cm" width="9.23cm" height="0.63cm" style="fill:#ffffff; stroke:#000000; stroke-width:0.500000;"/>
<rect x="34.42cm" y="10.74cm" width="9.23cm" height="1.59cm" style="fill:#808080; stroke:#808080; stroke-width:1;"/>
<rect x="34.23cm" y="10.55cm" width="9.23cm" height="1.59cm" style="fill:#ffffff; stroke:#000000; stroke-width:0.500000;"/>
<rect x="23.87cm" y="12.72cm" width="9.23cm" height="1.59cm" style="fill:#808080; stroke:#808080; stroke-width:1;"/>
<rect x="23.68cm" y="12.53cm" width="9.23cm" height="1.59cm" style="fill:#ffffff; stroke:#000000; stroke-width:0.500000;"/>
<line x1="32.91cm" y1="13.33cm" x2="33.90cm" y2="13.33cm" style="stroke:#000000; stroke-width:0.50pt;"/>
<line x1="33.90cm" y1="11.34cm" x2="33.90cm" y2="15.31cm" style="stroke:#000000; stroke-width:0.50pt;"/>
<line x1="33.90cm" y1="11.34cm" x2="34.23cm" y2="11.34cm" style="stroke:#000000; stroke-width:0.50pt;"/>
<line x1="33.90cm" y1="15.31cm" x2="34.23cm" y2="15.31cm" style="stroke:#000000; stroke-width:0.50pt;"/>
<rect x="34.23cm" y="12.53cm" width="9.23cm" height="0.63cm" style="fill:#ffffff; stroke:#000000; stroke-width:0.500000;"/>
<rect x="34.42cm" y="14.71cm" width="9.23cm" height="1.59cm" style="fill:#808080; stroke:#808080; stroke-width:1;"/>
<rect x="34.23cm" y="14.52cm" width="9.23cm" height="1.59cm" style="fill:#ffffff; stroke:#000000; stroke-width:0.500000;"/>
<rect x="2.77cm" y="16.69cm" width="9.23cm" height="1.11cm" style="fill:#808080; stroke:#808080; stroke-width:1;"/>
<rect x="2.58cm" y="16.50cm" width="9.23cm" height="1.11cm" style="fill:#ffffff; stroke:#000000; stroke-width:0.500000;"/>
<line x1="11.80cm" y1="17.06cm" x2="12.80cm" y2="17.06cm" style="stroke:#000000; stroke-width:0.50pt;"/>
<line x1="12.80cm" y1="9.36cm" x2="12.80cm" y2="25.23cm" style="stroke:#000000; stroke-width:0.50pt;"/>
<line x1="12.80cm" y1="9.36cm" x2="13.13cm" y2="9.36cm" style="stroke:#000000; stroke-width:0.50pt;"/>
<line x1="12.80cm" y1="25.23cm" x2="13.13cm" y2="25.23cm" style="stroke:#000000; stroke-width:0.50pt;"/>
<rect x="13.13cm" y="16.50cm" width="9.23cm" height="0.63cm" style="fill:#ffffff; stroke:#000000; stroke-width:0.500000;"/>
<rect x="34.42cm" y="18.68cm" width="9.23cm" height="1.59cm" style="fill:#808080; stroke:#808080; stroke-width:1;"/>
<rect x="34.23cm" y="18.49cm" width="9.23cm" height="1.59cm" style="fill:#ffffff; stroke:#000000; stroke-width:0.500000;"/>
<rect x="23.87cm" y="20.66cm" width="9.23cm" height="1.59cm" style="fill:#808080; stroke:#808080; stroke-width:1;"/>
<rect x="23.68cm" y="20.47cm" width="9.23cm" height="1.59cm" style="fill:#ffffff; stroke:#000000; stroke-width:0.500000;"/>
<line x1="32.91cm" y1="21.26cm" x2="33.90cm" y2="21.26cm" style="stroke:#000000; stroke-width:0.50pt;"/>
<line x1="33.90cm" y1="19.28cm" x2="33.90cm" y2="23.25cm" style="stroke:#000000; stroke-width:0.50pt;"/>
<line x1="33.90cm" y1="19.28cm" x2="34.23cm" y2="19.28cm" style="stroke:#000000; stroke-width:0.50pt;"/>
<line x1="33.90cm" y1="23.25cm" x2="34.23cm" y2="23.25cm" style="stroke:#000000; stroke-width:0.50pt;"/>
<rect x="34.23cm" y="20.47cm" width="9.23cm" height="0.63cm" style="fill:#ffffff; stroke:#000000; stroke-width:0.500000;"/>
<rect x="34.42cm" y="22.64cm" width="9.23cm" height="1.59cm" style="fill:#808080; stroke:#808080; stroke-width:1;"/>
<rect x="34.23cm" y="22.45cm" width="9.23cm" height="1.59cm" style="fill:#ffffff; stroke:#000000; stroke-width:0.500000;"/>
<rect x="13.32cm" y="24.63cm" width="9.23cm" height="1.59cm" style="fill:#808080; stroke:#808080; stroke-width:1;"/>
<rect x="13.13cm" y="24.44cm" width="9.23cm" height="1.59cm" style="fill:#ffffff; stroke:#000000; stroke-width:0.500000;"/>
<line x1="22.35cm" y1="25.23cm" x2="23.35cm" y2="25.23cm" style="stroke:#000000; stroke-width:0.50pt;"/>
<line x1="23.35cm" y1="21.26cm" x2="23.35cm" y2="29.20cm" style="stroke:#000000; stroke-width:0.50pt;"/>
<line x1="23.35cm" y1="21.26cm" x2="23.68cm" y2="21.26cm" style="stroke:#000000; stroke-width:0.50pt;"/>
<line x1="23.35cm" y1="29.20cm" x2="23.68cm" y2="29.20cm" style="stroke:#000000; stroke-width:0.50pt;"/>
<rect x="23.68cm" y="24.44cm" width="9.23cm" height="0.63cm" style="fill:#ffffff; stroke:#000000; stroke-width:0.500000;"/>
<rect x="34.42cm" y="26.61cm" width="9.23cm" height="1.59cm" style="fill:#808080; stroke:#808080; stroke-width:1;"/>
<rect x="34.23cm" y="26.42cm" width="9.23cm" height="1.59cm" style="fill:#ffffff; stroke:#000000; stroke-width:0.500000;"/>
<rect x="23.87cm" y="28.60cm" width="9.23cm" height="1.59cm" style="fill:#808080; stroke:#808080; stroke-width:1;"/>
<rect x="23.68cm" y="28.41cm" width="9.23cm" height="1.59cm" style="fill:#ffffff; stroke:#000000; stroke-width:0.500000;"/>
<line x1="32.91cm" y1="29.20cm" x2="33.90cm" y2="29.20cm" style="stroke:#000000; stroke-width:0.50pt;"/>
<line x1="33.90cm" y1="27.22cm" x2="33.90cm" y2="31.19cm" style="stroke:#000000; stroke-width:0.50pt;"/>
<line x1="33.90cm" y1="27.22cm" x2="34.23cm" y2="27.22cm" style="stroke:#000000; stroke-width:0.50pt;"/>
<line x1="33.90cm" y1="31.19cm" x2="34.23cm" y2="31.19cm" style="stroke:#000000; stroke-width:0.50pt;"/>
<rect x="34.23cm" y="28.41cm" width="9.23cm" height="0.63cm" style="fill:#ffffff; stroke:#000000; stroke-width:0.500000;"/>
<rect x="34.42cm" y="30.58cm" width="9.23cm" height="1.59cm" style="fill:#808080; stroke:#808080; stroke-width:1;"/>
<rect x="34.23cm" y="30.39cm" width="9.23cm" height="1.59cm" style="fill:#ffffff; stroke:#000000; stroke-width:0.500000;"/>
<line x1="11.80cm" y1="17.06cm" x2="12.80cm" y2="17.06cm" style="stroke:#000000; stroke-width:0.50pt;"/>
<line x1="12.80cm" y1="9.36cm" x2="12.80cm" y2="25.23cm" style="stroke:#000000; stroke-width:0.50pt;"/>
<line x1="12.80cm" y1="9.36cm" x2="13.13cm" y2="9.36cm" style="stroke:#000000; stroke-width:0.50pt;"/>
<line x1="12.80cm" y1="25.23cm" x2="13.13cm" y2="25.23cm" style="stroke:#000000; stroke-width:0.50pt;"/>
<line x1="22.35cm" y1="9.36cm" x2="23.35cm" y2="9.36cm" style="stroke:#000000; stroke-width:0.50pt;"/>
<line x1="23.35cm" y1="5.39cm" x2="23.35cm" y2="13.33cm" style="stroke:#000000; stroke-width:0.50pt;"/>
<line x1="23.35cm" y1="5.39cm" x2="23.68cm" y2="5.39cm" style="stroke:#000000; stroke-width:0.50pt;"/>
<line x1="23.35cm" y1="13.33cm" x2="23.68cm" y2="13.33cm" style="stroke:#000000; stroke-width:0.50pt;"/>
<line x1="32.91cm" y1="5.39cm" x2="33.90cm" y2="5.39cm" style="stroke:#000000; stroke-width:0.50pt;"/>
<line x1="33.90cm" y1="3.40cm" x2="33.90cm" y2="7.37cm" style="stroke:#000000; stroke-width:0.50pt;"/>
<line x1="33.90cm" y1="3.40cm" x2="34.23cm" y2="3.40cm" style="stroke:#000000; stroke-width:0.50pt;"/>
<line x1="33.90cm" y1="7.37cm" x2="34.23cm" y2="7.37cm" style="stroke:#000000; stroke-width:0.50pt;"/>
<line x1="32.91cm" y1="13.33cm" x2="33.90cm" y2="13.33cm" style="stroke:#000000; stroke-width:0.50pt;"/>
<line x1="33.90cm" y1="11.34cm" x2="33.90cm" y2="15.31cm" style="stroke:#000000; stroke-width:0.50pt;"/>
<line x1="33.90cm" y1="11.34cm" x2="34.23cm" y2="11.34cm" style="stroke:#000000; stroke-width:0.50pt;"/>
<line x1="33.90cm" y1="15.31cm" x2="34.23cm" y2="15.31cm" style="stroke:#000000; stroke-width:0.50pt;"/>
<line x1="22.35cm" y1="25.23cm" x2="23.35cm" y2="25.23cm" style="stroke:#000000; stroke-width:0.50pt;"/>
<line x1="23.35cm" y1="21.26cm" x2="23.35cm" y2="29.20cm" style="stroke:#000000; stroke-width:0.50pt;"/>
<line x1="23.35cm" y1="21.26cm" x2="23.68cm" y2="21.26cm" style="stroke:#000000; stroke-width:0.50pt;"/>
<line x1="23.35cm" y1="29.20cm" x2="23.68cm" y2="29.20cm" style="stroke:#000000; stroke-width:0.50pt;"/>
<line x1="32.91cm" y1="21.26cm" x2="33.90cm" y2="21.26cm" style="stroke:#000000; stroke-width:0.50pt;"/>
<line x1="33.90cm" y1="19.28cm" x2="33.90cm" y2="23.25cm" style="stroke:#000000; stroke-width:0.50pt;"/>
<line x1="33.90cm" y1="19.28cm" x2="34.23cm" y2="19.28cm" style="stroke:#000000; stroke-width:0.50pt;"/>
<line x1="33.90cm" y1="23.25cm" x2="34.23cm" y2="23.25cm" style="stroke:#000000; stroke-width:0.50pt;"/>
<line x1="32.91cm" y1="29.20cm" x2="33.90cm" y2="29.20cm" style="stroke:#000000; stroke-width:0.50pt;"/>
<line x1="33.90cm" y1="27.22cm" x2="33.90cm" y2="31.19cm" style="stroke:#000000; stroke-width:0.50pt;"/>
<line x1="33.90cm" y1="27.22cm" x2="34.23cm" y2="27.22cm" style="stroke:#000000; stroke-width:0.50pt;"/>
<line x1="33.90cm" y1="31.19cm" x2="34.23cm" y2="31.19cm" style="stroke:#000000; stroke-width:0.50pt;"/>
<text x="34.42cm" y="3.10cm" style="fill:#000000;  font-size:9pt; font-family:sans-serif;">Bartold, Józef</text>
<text x="34.42cm" y="3.48cm" style="fill:#000000;  font-size:9pt; font-family:sans-serif;">b. 1859-11-25 Grochy-Imbrzyki, Pułtusk, Mazowieckie, Polska</text>
<text x="34.42cm" y="3.86cm" style="fill:#000000;  font-size:9pt; font-family:sans-serif;">d. 1940-03-15 Grochy-Imbrzyki, Pułtusk, Mazowieckie, Polska</text>
<text x="23.87cm" y="5.08cm" style="fill:#000000;  font-size:9pt; font-family:sans-serif;">Bartold, Wacław</text>
<text x="23.87cm" y="5.46cm" style="fill:#000000;  font-size:9pt; font-family:sans-serif;">b. 1886-12-26 Grochy-Imbrzyki, Pułtusk, Mazowieckie, Polska</text>
<text x="23.87cm" y="5.85cm" style="fill:#000000;  font-size:9pt; font-family:sans-serif;">d. 1960-04-22 Detroit, Wayne, Michigan, USA</text>
<text x="34.43cm" y="4.99cm" style="fill:#000000;  font-size:9pt; font-family:sans-serif;">m. 1884-02-06 Grochy-Imbrzyki, Pułtusk, Mazowieckie, Polska</text>
<text x="34.42cm" y="7.07cm" style="fill:#000000;  font-size:9pt; font-family:sans-serif;">Nałęcz, Franciszka</text>
<text x="34.42cm" y="7.45cm" style="fill:#000000;  font-size:9pt; font-family:sans-serif;">b. 1862-03-12 Grochy-Imbrzyki, Pułtusk, Mazowieckie, Polska</text>
<text x="34.42cm" y="7.83cm" style="fill:#000000;  font-size:9pt; font-family:sans-serif;">d. 1937-11-14 Grochy-Imbrzyki, Pułtusk, Mazowieckie, Polska</text>
<text x="13.32cm" y="9.05cm" style="fill:#000000;  font-size:9pt; font-family:sans-serif;">Bartold, Chester Vitold</text>
<text x="13.32cm" y="9.43cm" style="fill:#000000;  font-size:9pt; font-family:sans-serif;">b. 1915-07-13 Detroit, Wayne, Michigan, USA</text>
<text x="13.32cm" y="9.81cm" style="fill:#000000;  font-size:9pt; font-family:sans-serif;">d. 1979-01-26 Harper Woods, Wayne, Michigan, USA</text>
<text x="23.88cm" y="8.96cm" style="fill:#000000;  font-size:9pt; font-family:sans-serif;">m. 1911-02-13 Detroit, Wayne, Michigan, USA</text>
<text x="34.42cm" y="11.04cm" style="fill:#000000;  font-size:9pt; font-family:sans-serif;">Wojcinski, Marcin</text>
<text x="34.42cm" y="11.42cm" style="fill:#000000;  font-size:9pt; font-family:sans-serif;">b. 1856-10-17 Marlewo, Oborniki, Wielkopolskie, Polska</text>
<text x="34.42cm" y="11.80cm" style="fill:#000000;  font-size:9pt; font-family:sans-serif;">d. 1909-05-25 Detroit, Wayne, Michigan, USA</text>
<text x="23.87cm" y="13.02cm" style="fill:#000000;  font-size:9pt; font-family:sans-serif;">Wojcinski, Rozalia</text>
<text x="23.87cm" y="13.40cm" style="fill:#000000;  font-size:9pt; font-family:sans-serif;">b. 1894-08-15 Detroit, Wayne, Michigan, USA</text>
<text x="23.87cm" y="13.78cm" style="fill:#000000;  font-size:9pt; font-family:sans-serif;">d. 1971-02-21 Detroit, Wayne, Michigan, USA</text>
<text x="34.43cm" y="12.93cm" style="fill:#000000;  font-size:9pt; font-family:sans-serif;">m. 1893-09-25 Detroit, Wayne, Michigan, USA</text>
<text x="34.42cm" y="15.01cm" style="fill:#000000;  font-size:9pt; font-family:sans-serif;">Jankowska, Franciszka</text>
<text x="34.42cm" y="15.39cm" style="fill:#000000;  font-size:9pt; font-family:sans-serif;">b. 1872-09-29 Rypin, Rypin, Kujawsko-Pomorskie, Polska</text>
<text x="34.42cm" y="15.77cm" style="fill:#000000;  font-size:9pt; font-family:sans-serif;">d. 1941-02-02 Detroit, Wayne, Michigan, USA</text>
<text x="2.77cm" y="16.94cm" style="fill:#000000;  font-size:9pt; font-family:sans-serif;">Bartold, Thomas Michael</text>
<text x="2.77cm" y="17.32cm" style="fill:#000000;  font-size:9pt; font-family:sans-serif;">b.  </text>
<text x="13.33cm" y="16.89cm" style="fill:#000000;  font-size:9pt; font-family:sans-serif;">m. 1949-04-23 Detroit, Wayne, Michigan, USA</text>
<text x="34.42cm" y="18.97cm" style="fill:#000000;  font-size:9pt; font-family:sans-serif;">Sybilski, Antoni</text>
<text x="34.42cm" y="19.36cm" style="fill:#000000;  font-size:9pt; font-family:sans-serif;">b. 1843-05-17 Chrośno, Zgierz, Łódzkie, Polska</text>
<text x="34.42cm" y="19.74cm" style="fill:#000000;  font-size:9pt; font-family:sans-serif;">d. after 1890 Ozorków, Zgierz, Łódzkie, Polska</text>
<text x="23.87cm" y="20.96cm" style="fill:#000000;  font-size:9pt; font-family:sans-serif;">Sibilski, Franciszek</text>
<text x="23.87cm" y="21.34cm" style="fill:#000000;  font-size:9pt; font-family:sans-serif;">b. 1884-10-06 Ozorków, Zgierz, Łódzkie, Polska</text>
<text x="23.87cm" y="21.72cm" style="fill:#000000;  font-size:9pt; font-family:sans-serif;">d. 1940-06-13 Chicago, Cook, Illinois, USA</text>
<text x="34.43cm" y="20.86cm" style="fill:#000000;  font-size:9pt; font-family:sans-serif;">m. 1862-02-11 Prawęcice, Zgierz, Łódzkie, Polska</text>
<text x="34.42cm" y="22.94cm" style="fill:#000000;  font-size:9pt; font-family:sans-serif;">Jurasz, Józefa</text>
<text x="34.42cm" y="23.32cm" style="fill:#000000;  font-size:9pt; font-family:sans-serif;">b. 1846-02-01 Kolonia Karolinów, Poddębice, Łódzkie, Polska</text>
<text x="34.42cm" y="23.71cm" style="fill:#000000;  font-size:9pt; font-family:sans-serif;">d. 1931-07-17 Ozorków, Zgierz, Łódzkie, Polska</text>
<text x="13.32cm" y="24.93cm" style="fill:#000000;  font-size:9pt; font-family:sans-serif;">Sibilski, Sophie Helen</text>
<text x="13.32cm" y="25.31cm" style="fill:#000000;  font-size:9pt; font-family:sans-serif;">b. 1922-09-13 Flint, Genesee, Michigan, USA</text>
<text x="13.32cm" y="25.69cm" style="fill:#000000;  font-size:9pt; font-family:sans-serif;">d. 2011-12-12 Livonia, Wayne, Michigan, USA</text>
<text x="23.88cm" y="24.83cm" style="fill:#000000;  font-size:9pt; font-family:sans-serif;">m. 1922-02-08 Detroit, Wayne, Michigan, USA</text>
<text x="34.42cm" y="26.91cm" style="fill:#000000;  font-size:9pt; font-family:sans-serif;">Mucha, Stanisław</text>
<text x="34.42cm" y="27.29cm" style="fill:#000000;  font-size:9pt; font-family:sans-serif;">b. 1854-04-25 Gębice, Zgierz, Łódzkie, Polska</text>
<text x="34.42cm" y="27.67cm" style="fill:#000000;  font-size:9pt; font-family:sans-serif;">d. 1922-11-20 Ozorków, Zgierz, Łódzkie, Polska</text>
<text x="23.87cm" y="28.90cm" style="fill:#000000;  font-size:9pt; font-family:sans-serif;">Muszyńska, Janina</text>
<text x="23.87cm" y="29.28cm" style="fill:#000000;  font-size:9pt; font-family:sans-serif;">b. 1898-01-27 Ozorków, Zgierz, Łódzkie, Polska</text>
<text x="23.87cm" y="29.66cm" style="fill:#000000;  font-size:9pt; font-family:sans-serif;">d. 1996-11-28 Harper Woods, Wayne, Michigan, USA</text>
<text x="34.43cm" y="28.80cm" style="fill:#000000;  font-size:9pt; font-family:sans-serif;">m. 1882-11-07 Ozorków, Zgierz, Łódzkie, Polska</text>
<text x="34.42cm" y="30.88cm" style="fill:#000000;  font-size:9pt; font-family:sans-serif;">Sibilska, Konstancja</text>
<text x="34.42cm" y="31.26cm" style="fill:#000000;  font-size:9pt; font-family:sans-serif;">b. 1865-04-03 Chrośno, Zgierz, Łódzkie, Polska</text>
<text x="34.42cm" y="31.64cm" style="fill:#000000;  font-size:9pt; font-family:sans-serif;">d. 1951-10-21 Łódź, Łódź, Łódzkie, Polska</text>
</svg>
